# xmcd CD database file
#
# Track frame offsets:
#	150
#	31967
#	54249
#	91129
#	119635
#	152661
#	197259
#	244767
#	282128
#
# Disc length: 4326 seconds
#
# Revision: 0
# Processed by: cddbd v1.5.1PL2 Copyright (c) Steve Scherf et al.
# Submitted via: CDex 1.51
#
DISCID=6b10e409
DTITLE=Kemenade, Paul Van Quintet - Mexi Cosy
DYEAR=2006
DGENRE=Jazz
TTITLE0=Jajaja...m
TTITLE1=Tembisa, the people
TTITLE2=Mexi cosy
TTITLE3=South african connection
TTITLE4=Qaphela
TTITLE5=Banoi
TTITLE6=Like a spinx Mr. Linx
TTITLE7=Soil'afrique
TTITLE8=A fresh fart
EXTD=YEAR: 2006
EXTT0=
EXTT1=
EXTT2=
EXTT3=
EXTT4=
EXTT5=
EXTT6=
EXTT7=
EXTT8=
PLAYORDER=
